<?xml version="1.0" standalone="no"?>
<!DOCTYPE svg PUBLIC "-//W3C//DTD SVG 20010904//EN"
 "http://www.w3.org/TR/2001/REC-SVG-20010904/DTD/svg10.dtd">
<svg version="1.0" xmlns="http://www.w3.org/2000/svg"
 width="500.000000pt" height="500.000000pt" viewBox="0 0 500.000000 500.000000"
 preserveAspectRatio="xMidYMid meet">

<g transform="translate(0.000000,500.000000) scale(0.100000,-0.100000)"
fill="#000000" stroke="none">
<path d="M2340 4869 c-195 -10 -346 -38 -535 -97 -540 -168 -1006 -544 -1314
-1060 -173 -290 -277 -589 -327 -942 -18 -130 -15 -517 5 -625 6 -33 16 -87
22 -120 69 -369 252 -754 497 -1045 366 -436 853 -717 1412 -815 586 -102
1195 25 1685 351 509 339 869 878 993 1489 38 183 46 277 46 495 0 208 -6 284
-40 460 -84 436 -324 893 -638 1219 -352 364 -822 603 -1326 675 -123 18 -319
24 -480 15z m375 -329 c298 -33 619 -151 873 -321 145 -97 223 -162 334 -278
481 -500 680 -1180 549 -1868 -68 -352 -265 -725 -536 -1012 -164 -173 -423
-356 -625 -441 -41 -18 -88 -38 -105 -45 -87 -40 -302 -95 -445 -116 -124 -17
-434 -15 -550 5 -669 112 -1242 531 -1538 1122 -92 183 -145 349 -184 567 -36
205 -31 529 12 722 48 216 85 325 164 490 320 666 940 1107 1656 1178 79 8
311 6 395 -3z"/>
<path d="M2405 4365 c-24 -23 -25 -28 -25 -173 0 -135 2 -150 20 -170 17 -18
32 -22 85 -22 54 0 68 4 85 22 29 32 32 50 28 193 -3 125 -3 127 -31 151 -41
35 -127 34 -162 -1z"/>
<path d="M3673 3759 c-78 -55 -182 -99 -421 -178 -300 -99 -393 -145 -537
-262 -178 -144 -305 -359 -335 -566 -17 -122 -11 -333 10 -333 4 0 33 41 65
91 32 50 97 139 145 198 167 204 338 344 663 540 79 48 31 -4 -105 -113 -338
-271 -584 -580 -767 -966 -77 -162 -113 -282 -142 -462 -18 -121 -2 -148 92
-148 63 0 89 33 89 112 0 127 43 306 102 423 55 110 78 125 245 159 281 57
446 144 611 321 164 175 266 386 328 675 20 93 26 155 31 328 6 204 5 212 -13
211 -10 0 -38 -14 -61 -30z"/>
<path d="M1383 3003 c5 -167 24 -256 82 -378 69 -144 169 -251 306 -324 68
-36 224 -91 260 -91 8 0 38 -11 66 -25 53 -27 89 -70 113 -137 21 -59 37 -55
44 11 9 78 -6 140 -59 239 -60 113 -123 189 -273 333 -88 84 -116 116 -92 104
136 -67 305 -216 380 -333 62 -97 74 -95 66 11 -17 192 -59 290 -176 408 -89
89 -186 143 -330 185 -246 70 -337 105 -355 135 -4 5 -13 9 -22 9 -13 0 -15
-19 -10 -147z"/>
<path d="M656 2589 c-23 -18 -26 -27 -26 -88 0 -100 6 -103 175 -104 127 -1
137 0 158 21 18 18 22 34 22 83 0 54 -3 64 -28 85 -26 23 -36 24 -151 24 -110
0 -126 -2 -150 -21z"/>
<path d="M4033 2600 c-31 -13 -43 -41 -43 -102 1 -80 14 -92 113 -98 45 -3
113 -3 150 0 84 6 97 20 97 102 0 49 -4 63 -25 83 -23 24 -29 25 -147 24 -68
0 -133 -4 -145 -9z"/>
<path d="M2405 975 c-24 -23 -25 -29 -25 -168 0 -137 1 -144 23 -165 32 -30
137 -32 167 -2 28 28 32 54 28 190 -3 119 -4 122 -31 146 -41 35 -127 34 -162
-1z"/>
</g>
</svg>
